<svg width="1200" height="509" viewBox="0 0 1200 509" fill="none" xmlns="http://www.w3.org/2000/svg">
<g clip-path="url(#clip0)">
<path d="M490.795 300.669L491.15 300.528V298.05H499.071V333.402H491.15V329.796L490.724 329.655C489.319 331.133 487.614 332.294 485.723 333.06C483.833 333.826 481.801 334.18 479.763 334.098C477.433 334.02 475.142 333.482 473.021 332.514C470.901 331.546 468.993 330.168 467.408 328.459C465.824 326.75 464.593 324.744 463.788 322.556C462.983 320.369 462.619 318.044 462.718 315.716C462.66 313.339 463.076 310.975 463.94 308.76C464.803 306.545 466.099 304.524 467.75 302.813C469.402 301.103 471.377 299.738 473.561 298.797C475.744 297.856 478.093 297.358 480.471 297.332C484.205 297.142 487.879 298.33 490.795 300.669ZM491.15 322.101V306.971C488.329 304.954 484.927 303.911 481.459 304.002C478.514 304.247 475.769 305.589 473.768 307.763C471.767 309.937 470.656 312.784 470.656 315.738C470.656 318.693 471.767 321.539 473.768 323.713C475.769 325.887 478.514 327.23 481.459 327.475C483.42 327.599 485.376 327.158 487.093 326.204C488.811 325.25 490.219 323.823 491.15 322.093V322.101Z" fill="#323232"/>
<path d="M531.239 298.053H539.16V302.083L539.586 302.225C540.826 300.702 542.39 299.474 544.163 298.63C545.936 297.786 547.875 297.347 549.839 297.345H550.83V304.556H549.133C547.275 304.543 545.433 304.907 543.719 305.626C542.006 306.344 540.455 307.403 539.162 308.738V333.483H531.241L531.239 298.053Z" fill="#323232"/>
<path d="M602.805 300.528V298.05H610.724V349.667H602.805V330.005L602.382 329.864C600.977 331.271 599.297 332.374 597.447 333.103C595.597 333.833 593.617 334.174 591.629 334.106C589.3 334.028 587.009 333.489 584.889 332.521C582.769 331.553 580.861 330.175 579.277 328.466C577.692 326.757 576.462 324.751 575.657 322.564C574.852 320.377 574.489 318.052 574.587 315.724C574.53 313.347 574.944 310.983 575.808 308.768C576.672 306.553 577.967 304.532 579.618 302.821C581.269 301.111 583.244 299.746 585.428 298.804C587.611 297.863 589.96 297.366 592.338 297.34C596.087 297.191 599.776 298.314 602.805 300.528V300.528ZM602.805 322.799V306.396C599.94 304.708 596.652 303.874 593.329 303.994C590.384 304.239 587.638 305.581 585.637 307.755C583.636 309.929 582.525 312.776 582.525 315.73C582.525 318.685 583.636 321.531 585.637 323.705C587.638 325.879 590.384 327.222 593.329 327.467C595.182 327.61 597.039 327.252 598.706 326.431C600.374 325.61 601.789 324.355 602.805 322.799V322.799Z" fill="#323232"/>
<path d="M675.501 317.566C675.378 321.995 673.532 326.201 670.356 329.29C667.179 332.379 662.923 334.107 658.492 334.107C654.06 334.107 649.804 332.379 646.627 329.29C643.451 326.201 641.605 321.995 641.482 317.566V298.05H649.403V317.566C649.403 323.931 653.364 327.467 658.454 327.467C659.726 327.493 660.99 327.248 662.161 326.749C663.332 326.25 664.384 325.508 665.246 324.572C666.109 323.636 666.763 322.527 667.164 321.319C667.566 320.112 667.707 318.832 667.577 317.566V298.05H675.498L675.501 317.566Z" fill="#323232"/>
<path d="M711.208 283.417C711.975 283.513 712.698 283.828 713.291 284.325C713.884 284.821 714.321 285.478 714.551 286.216C714.78 286.954 714.792 287.743 714.585 288.488C714.378 289.233 713.96 289.902 713.383 290.416C712.805 290.93 712.092 291.267 711.328 291.387C710.564 291.506 709.782 291.403 709.075 291.09C708.368 290.777 707.766 290.267 707.341 289.621C706.917 288.975 706.687 288.22 706.68 287.447C706.699 286.88 706.832 286.323 707.073 285.81C707.313 285.297 707.656 284.838 708.079 284.461C708.503 284.084 708.999 283.797 709.536 283.617C710.074 283.438 710.643 283.37 711.208 283.417V283.417ZM707.318 298.053H715.236V333.405H707.318V298.053Z" fill="#323232"/>
<path d="M743.593 298.05H749.038V286.739H756.959V298.05H766.579V304.404H756.959V320.87C756.844 321.64 756.904 322.426 757.135 323.17C757.365 323.913 757.76 324.596 758.29 325.166C758.82 325.736 759.472 326.18 760.197 326.464C760.921 326.749 761.701 326.866 762.478 326.808C764.186 326.869 765.891 326.603 767.5 326.024L768.911 332.247C766.623 333.273 764.135 333.78 761.628 333.732C759.948 333.842 758.265 333.593 756.689 333.002C755.113 332.41 753.682 331.489 752.491 330.301C751.299 329.112 750.375 327.683 749.78 326.109C749.184 324.535 748.931 322.853 749.038 321.173V304.404H743.595L743.593 298.05Z" fill="#323232"/>
<path d="M828.311 313.325V317.567H802.287C802.854 324.145 806.602 327.323 814.239 327.464C817.817 327.515 821.363 326.791 824.635 325.342L826.12 331.353C822.426 333.179 818.359 334.123 814.239 334.111C802.357 334.111 794.295 327.182 794.295 315.8C794.191 313.426 794.567 311.056 795.4 308.831C796.233 306.605 797.506 304.571 799.142 302.848C800.779 301.126 802.746 299.751 804.926 298.805C807.106 297.86 809.455 297.363 811.831 297.345C821.451 297.334 827.683 302.93 828.311 313.325V313.325ZM802.642 311.769H820.322C820.332 310.703 820.121 309.646 819.702 308.665C819.283 307.684 818.665 306.8 817.888 306.069C817.111 305.339 816.191 304.777 815.185 304.419C814.18 304.061 813.112 303.916 812.048 303.991C809.804 303.929 807.614 304.684 805.884 306.114C804.154 307.545 803.002 309.554 802.642 311.769V311.769Z" fill="#323232"/>
<path d="M853.339 298.05H858.785V286.739H866.706V298.05H876.323V304.404H866.706V320.87C866.591 321.64 866.651 322.426 866.881 323.169C867.111 323.912 867.506 324.595 868.036 325.165C868.566 325.735 869.217 326.179 869.941 326.463C870.666 326.748 871.445 326.866 872.221 326.808C873.931 326.87 875.636 326.603 877.246 326.024L878.658 332.247C876.369 333.273 873.882 333.78 871.375 333.732C869.693 333.842 868.007 333.592 866.43 332.999C864.853 332.406 863.42 331.482 862.229 330.291C861.037 329.1 860.114 327.668 859.52 326.091C858.927 324.514 858.677 322.828 858.787 321.147V304.404H853.342L853.339 298.05Z" fill="#323232"/>
<path d="M939.545 317.566C939.422 321.995 937.576 326.201 934.4 329.29C931.223 332.379 926.967 334.107 922.536 334.107C918.104 334.107 913.848 332.379 910.672 329.29C907.495 326.201 905.649 321.995 905.526 317.566V298.05H913.447V317.566C913.447 323.931 917.408 327.467 922.498 327.467C923.771 327.493 925.034 327.248 926.205 326.749C927.376 326.25 928.428 325.508 929.291 324.572C930.153 323.636 930.807 322.527 931.209 321.319C931.611 320.112 931.751 318.832 931.621 317.566V298.05H939.542L939.545 317.566Z" fill="#323232"/>
<path d="M970.306 298.053H978.227V302.083L978.653 302.225C979.894 300.702 981.457 299.475 983.23 298.631C985.004 297.787 986.942 297.348 988.906 297.345H989.897V304.556H988.2C986.342 304.543 984.5 304.907 982.786 305.626C981.071 306.344 979.521 307.403 978.227 308.738V333.483H970.306V298.053Z" fill="#323232"/>
<path d="M1041.72 300.669L1042.08 300.528V298.05H1050V333.402H1042.08V329.796L1041.65 329.655C1040.25 331.133 1038.54 332.293 1036.65 333.06C1034.76 333.826 1032.73 334.18 1030.69 334.098C1028.36 334.02 1026.07 333.482 1023.95 332.514C1021.83 331.546 1019.92 330.168 1018.34 328.459C1016.75 326.75 1015.52 324.743 1014.72 322.556C1013.91 320.369 1013.55 318.044 1013.65 315.716C1013.59 313.339 1014 310.975 1014.87 308.76C1015.73 306.545 1017.03 304.524 1018.68 302.813C1020.33 301.103 1022.31 299.738 1024.49 298.797C1026.67 297.856 1029.02 297.358 1031.4 297.332C1035.13 297.142 1038.81 298.329 1041.72 300.669V300.669ZM1042.08 322.101V306.971C1039.26 304.954 1035.86 303.911 1032.39 304.002C1029.44 304.247 1026.7 305.589 1024.7 307.763C1022.7 309.937 1021.58 312.784 1021.58 315.738C1021.58 318.693 1022.7 321.539 1024.7 323.713C1026.7 325.887 1029.44 327.23 1032.39 327.475C1034.35 327.599 1036.3 327.158 1038.02 326.204C1039.74 325.25 1041.15 323.823 1042.08 322.093V322.101Z" fill="#323232"/>
<path d="M296.277 333.405H321.933V159H296.277V333.405ZM369.357 214.433V186.284H343.701V333.402H369.357V240.085H395.02V214.435L369.357 214.433ZM248.842 223.936C239.579 217.156 228.617 213.074 217.174 212.143C205.732 211.211 194.254 213.467 184.016 218.66C173.777 223.853 165.177 231.779 159.17 241.561C153.162 251.342 149.982 262.596 149.982 274.074C149.982 285.552 153.162 296.806 159.17 306.588C165.177 316.369 173.777 324.296 184.016 329.489C194.254 334.681 205.732 336.937 217.174 336.006C228.617 335.075 239.579 330.993 248.842 324.213V333.405H274.506V307.755H264.366C270.884 297.665 274.335 285.901 274.3 273.889C274.265 261.878 270.745 250.134 264.167 240.083H274.506V214.433H248.85L248.842 223.936ZM212.142 310.562C204.924 310.562 197.868 308.422 191.867 304.413C185.865 300.404 181.188 294.705 178.425 288.038C175.663 281.371 174.941 274.035 176.349 266.957C177.757 259.88 181.233 253.379 186.336 248.276C191.44 243.173 197.943 239.698 205.022 238.29C212.101 236.883 219.439 237.605 226.107 240.367C232.776 243.128 238.475 247.805 242.485 253.805C246.496 259.805 248.636 266.859 248.636 274.076C248.625 283.747 244.778 293.019 237.938 299.859C231.099 306.699 221.826 310.548 212.152 310.562H212.142Z" fill="#323232"/>
</g>
<defs>
<clipPath id="clip0">
<rect x="150" y="159" width="900" height="190.67" fill="white"/>
</clipPath>
</defs>
</svg>
